<?xml version="1.0" standalone="no"?>
<!DOCTYPE svg PUBLIC "-//W3C//DTD SVG 20010904//EN"
 "http://www.w3.org/TR/2001/REC-SVG-20010904/DTD/svg10.dtd">
<svg version="1.0" xmlns="http://www.w3.org/2000/svg"
 width="1920.000000pt" height="1920.000000pt" viewBox="0 0 1920.000000 1920.000000"
 preserveAspectRatio="xMidYMid meet">
<metadata>
Created by potrace 1.14, written by Peter Selinger 2001-2017
</metadata>
<g transform="translate(0.000000,1920.000000) scale(0.100000,-0.100000)"
fill="#000000" stroke="none">
<path d="M6725 13993 c1 -230 5 -436 9 -457 46 -242 200 -417 385 -433 34 -3
61 -9 61 -13 0 -3 -8 -31 -17 -61 -21 -67 -23 -260 -4 -339 18 -75 71 -186
113 -238 l35 -43 -61 -92 c-119 -181 -268 -460 -342 -640 -14 -34 -29 -71 -34
-82 -22 -46 -85 -219 -125 -345 -125 -384 -202 -771 -240 -1195 -3 -33 -8 -89
-11 -125 -4 -36 -7 -670 -8 -1410 -1 -1185 0 -1348 14 -1375 32 -64 -201 -59
2910 -60 1559 0 2854 2 2878 6 28 4 53 16 70 33 l27 26 0 1323 c0 1147 -4
1443 -20 1526 -2 9 -6 57 -10 107 -4 49 -9 98 -11 109 -2 11 -7 45 -9 75 -3
30 -8 62 -10 70 -3 8 -7 35 -10 60 -3 25 -7 56 -10 70 -3 14 -7 41 -10 60 -4
19 -17 87 -31 150 -14 63 -27 126 -30 140 -14 72 -92 342 -138 479 -101 297
-251 627 -396 867 -39 64 -70 118 -70 120 0 2 138 4 307 4 289 0 309 -1 349
-20 126 -62 252 -246 343 -502 46 -133 111 -379 136 -523 8 -46 25 -142 30
-175 3 -19 7 -46 10 -60 2 -14 7 -50 10 -80 3 -30 8 -62 10 -70 2 -8 7 -49 10
-90 4 -41 8 -86 10 -100 2 -14 7 -63 11 -110 3 -47 8 -98 10 -115 2 -28 8
-117 19 -325 2 -47 7 -186 10 -310 7 -305 16 -357 76 -485 75 -157 198 -247
342 -247 55 -1 79 5 130 30 131 65 234 223 265 407 12 72 4 550 -13 810 -16
241 -27 381 -41 505 -4 30 -8 66 -9 80 -7 71 -51 386 -61 440 -3 14 -11 60
-19 103 -97 529 -249 983 -435 1297 -141 239 -333 432 -526 528 -179 90 -250
101 -648 102 -176 0 -321 2 -322 3 -2 1 -4 178 -6 392 -3 377 -4 392 -26 446
-27 67 -79 131 -126 153 -31 15 -233 16 -2393 16 l-2359 0 1 -417z m4568 -3
l32 0 0 -233 0 -233 -2112 0 -2111 1 -26 24 c-40 38 -48 79 -49 266 l-2 174
25 3 c18 2 4043 1 4243 -2z m962 -984 c362 -32 655 -345 854 -911 24 -66 44
-127 46 -135 2 -8 15 -54 29 -101 14 -47 27 -97 30 -110 3 -13 12 -51 20 -84
19 -79 66 -310 72 -355 2 -19 11 -75 20 -124 8 -49 17 -105 19 -125 2 -20 6
-52 9 -71 2 -19 7 -62 11 -95 3 -33 8 -71 10 -85 3 -14 7 -54 10 -90 3 -36 8
-90 10 -120 23 -239 35 -481 40 -771 4 -230 -4 -270 -61 -317 -30 -25 -48 -29
-100 -23 -22 2 -74 65 -84 101 -5 19 -12 130 -15 245 -9 333 -25 642 -41 785
-2 25 -6 68 -8 95 -7 84 -17 182 -21 204 -2 11 -6 48 -10 83 -3 35 -8 70 -10
78 -2 8 -7 35 -10 60 -10 76 -34 214 -56 317 -132 635 -349 1049 -623 1183
-44 22 -105 45 -135 50 -35 6 -887 10 -2397 10 -1415 0 -2352 4 -2367 9 -62
24 -93 147 -58 227 26 57 45 68 125 74 96 7 4615 3 4691 -4z m-3230 -706 c51
1 43 -7 -15 -15 -25 -3 -52 -8 -60 -10 -8 -2 -35 -7 -60 -10 -140 -19 -417
-95 -594 -162 -405 -153 -757 -380 -1056 -682 -121 -122 -149 -153 -198 -215
-30 -39 -28 -27 16 89 66 171 103 255 179 405 101 201 185 341 288 485 27 39
59 83 70 98 l20 29 685 -7 c377 -4 703 -6 725 -5z m885 -22 c0 -4 -4 -8 -9 -8
-6 0 -12 4 -15 8 -3 5 1 9 9 9 8 0 15 -4 15 -9z m570 -3 c778 -11 801 -12 815
-26 26 -29 144 -209 209 -318 113 -191 290 -572 327 -706 l8 -30 -25 30 c-54
62 -158 177 -184 203 -92 90 -157 149 -250 223 -94 75 -156 119 -324 227 -75
48 -319 166 -439 211 -107 41 -313 106 -363 115 -14 3 -40 9 -57 15 -34 10
-139 33 -172 36 -49 5 -105 18 -105 24 0 4 24 5 53 4 28 -1 257 -4 507 -8z
m-1160 -725 l0 -540 -22 -14 c-13 -8 -45 -19 -73 -25 -27 -5 -88 -21 -135 -35
-47 -14 -88 -22 -91 -18 -4 4 -28 48 -54 97 -26 50 -67 126 -90 170 -52 98
-107 201 -193 365 -37 69 -96 181 -133 250 -37 69 -63 128 -60 133 12 12 238
76 361 102 144 30 167 33 265 41 44 4 82 8 84 10 2 2 35 4 73 4 l68 0 0 -540z
m495 524 c134 -15 572 -118 593 -139 4 -3 -161 -327 -178 -350 -4 -5 -38 -68
-75 -140 -37 -71 -86 -164 -108 -205 -63 -119 -117 -220 -149 -280 l-30 -56
-87 27 c-47 15 -111 35 -141 43 -30 9 -62 20 -70 26 -13 8 -15 81 -16 551 l-1
542 106 -7 c58 -3 129 -9 156 -12z m1202 -436 c107 -69 303 -218 302 -228 0
-3 -57 -50 -127 -105 -70 -55 -280 -221 -467 -370 -187 -149 -359 -285 -382
-303 l-41 -32 -99 76 c-152 117 -146 91 -57 263 102 195 161 306 194 366 15
28 51 95 80 150 82 156 139 264 177 333 l34 62 139 -71 c77 -39 188 -103 247
-141z m-2724 120 c25 -46 66 -123 92 -173 26 -49 64 -121 85 -160 20 -38 66
-124 101 -190 35 -66 75 -141 89 -167 91 -172 124 -236 131 -260 7 -26 3 -32
-74 -90 -45 -34 -93 -73 -107 -85 -14 -13 -32 -23 -40 -23 -16 1 -22 5 -86 57
-21 18 -120 97 -219 175 -588 467 -705 561 -705 564 0 28 239 203 420 308 73
43 242 126 256 126 7 0 32 -37 57 -82z m-601 -740 c161 -128 302 -240 313
-250 11 -9 103 -82 205 -163 213 -169 240 -192 240 -210 0 -29 -115 -255 -130
-255 -9 0 -49 11 -90 24 -41 13 -313 99 -605 191 -291 91 -570 179 -618 194
l-88 28 56 108 c65 124 137 238 217 343 68 89 187 222 198 222 5 0 141 -105
302 -232z m3815 218 c4 -7 28 -36 53 -63 25 -28 56 -63 70 -79 36 -43 140
-190 187 -264 38 -62 133 -241 133 -253 0 -2 -12 -8 -27 -12 -27 -6 -230 -69
-453 -140 -58 -18 -177 -56 -265 -84 -472 -148 -555 -174 -609 -192 -33 -10
-60 -18 -61 -16 0 1 -25 54 -54 117 -29 63 -56 125 -58 138 -6 25 -8 23 137
136 47 37 92 72 100 79 12 10 131 105 200 160 100 80 554 439 580 460 39 30
55 33 67 13z m-1792 -530 c409 -156 690 -682 633 -1186 -23 -202 -47 -292
-119 -449 -68 -148 -141 -233 -325 -380 -38 -31 -147 -101 -151 -98 -2 3 9 27
25 54 27 45 67 142 79 188 13 52 11 185 -3 250 -17 75 -75 223 -106 267 -10
14 -18 29 -18 33 0 9 -131 181 -176 230 -103 113 -185 204 -215 240 -19 22
-36 42 -39 45 -50 47 -121 177 -143 261 -40 154 14 360 122 467 111 109 277
138 436 78z m-786 -163 c-90 -362 -42 -548 219 -848 20 -22 72 -80 116 -129
117 -128 121 -134 182 -214 156 -204 197 -393 122 -552 -14 -28 -77 -112 -93
-122 -5 -3 -21 -16 -35 -28 -87 -77 -239 -98 -340 -46 -232 120 -390 303 -495
575 -150 390 -101 846 128 1186 39 58 183 215 198 215 4 0 3 -17 -2 -37z
m-1874 -231 c320 -100 551 -173 610 -192 33 -11 177 -56 320 -100 176 -55 265
-87 277 -101 13 -15 16 -32 12 -77 -3 -31 -12 -67 -20 -80 l-15 -22 -742 2
-742 3 1 23 c19 346 36 482 75 584 9 23 14 25 37 18 15 -5 99 -31 187 -58z
m4995 11 c17 -62 16 -58 24 -128 4 -33 9 -76 11 -95 5 -34 7 -61 21 -268 l6
-93 -678 0 c-374 0 -699 0 -724 -1 -74 -1 -79 1 -100 35 -26 41 -27 117 -2
145 15 18 84 44 232 87 25 8 95 29 155 48 94 30 873 275 990 311 22 7 43 11
46 10 4 -2 12 -25 19 -51z m-4729 -809 c17 -21 21 -524 4 -524 -9 1 -33 22
-210 189 -162 151 -324 302 -344 320 -11 10 -21 21 -21 25 0 3 125 6 279 6
244 0 280 -2 292 -16z m789 12 c0 -3 -244 -245 -447 -444 -45 -44 -84 -77 -87
-74 -8 8 -7 507 1 515 6 7 533 10 533 3z m3187 -8 c9 -15 12 -475 3 -501 -4
-14 -61 37 -268 239 -144 141 -262 261 -262 265 0 5 117 9 259 9 197 0 262 -3
268 -12z m823 3 c0 -5 -15 -21 -32 -36 -30 -25 -146 -133 -372 -346 -165 -156
-175 -163 -177 -136 0 6 -1 121 -1 255 0 178 3 246 12 257 10 13 57 15 291 15
161 0 279 -4 279 -9z m-3830 -193 c6 -24 49 -137 95 -252 78 -191 84 -211 70
-227 -9 -9 -97 -79 -197 -155 -99 -77 -233 -180 -297 -230 -64 -49 -177 -136
-251 -193 l-135 -103 -3 239 c-1 131 0 248 3 260 3 11 73 88 156 170 83 81
237 234 342 340 106 105 195 192 199 192 4 1 12 -18 18 -41z m2540 -184 c102
-100 249 -245 328 -321 78 -77 142 -146 143 -154 4 -57 3 -482 -2 -490 -4 -7
-242 169 -454 337 -16 13 -121 93 -232 179 -112 86 -203 161 -203 168 0 7 19
53 44 102 63 128 98 219 111 286 2 13 10 46 16 72 l11 48 26 -23 c15 -13 110
-105 212 -204z m-4045 40 c28 -25 102 -95 165 -154 63 -59 143 -134 178 -166
35 -33 95 -89 134 -126 l72 -68 1 -220 c0 -121 -2 -220 -5 -220 -5 1 -43 35
-181 164 -42 39 -134 125 -205 191 -209 196 -224 212 -225 248 -1 46 -1 359 0
380 1 26 11 21 66 -29z m5366 39 c7 -36 3 -394 -3 -415 -8 -22 -63 -77 -262
-262 -17 -15 -85 -78 -150 -140 -150 -140 -179 -166 -188 -166 -5 0 -8 17 -9
38 -1 44 -1 314 0 358 1 31 39 73 181 204 19 18 91 85 160 150 69 65 154 145
190 179 63 59 79 69 81 54z m-3477 -608 c12 -11 61 -53 109 -94 48 -40 87 -76
87 -80 0 -3 -42 -37 -92 -76 -50 -38 -96 -75 -102 -80 -6 -6 -51 -42 -101 -80
-49 -39 -99 -78 -110 -87 -11 -9 -123 -99 -250 -199 -126 -100 -253 -200 -281
-223 -28 -23 -66 -52 -84 -66 -18 -14 -38 -29 -44 -35 -45 -41 -218 -175 -226
-175 -6 0 -10 84 -10 224 0 219 1 226 23 250 12 14 149 123 304 243 154 120
368 286 474 368 106 83 202 155 212 161 21 12 31 6 91 -51z m1802 -91 c104
-80 222 -171 262 -203 78 -59 256 -197 307 -236 17 -13 73 -56 125 -96 98 -75
129 -104 131 -123 6 -56 2 -446 -5 -446 -7 0 -139 101 -246 187 -24 20 -333
266 -371 295 -126 100 -558 442 -574 456 -11 9 -37 30 -58 45 -33 25 -49 57
-29 57 4 0 61 47 127 105 66 57 125 104 131 105 6 0 96 -66 200 -146z m-3675
-107 c36 -34 111 -103 165 -153 288 -267 364 -344 365 -373 1 -14 2 -121 3
-238 2 -188 0 -211 -14 -203 -8 4 -83 61 -166 127 -83 65 -166 129 -184 143
-127 96 -239 193 -245 211 -4 11 -7 129 -7 262 0 292 0 287 10 287 4 0 37 -28
73 -63z m5354 -204 c-1 -148 -4 -277 -8 -288 -4 -11 -38 -43 -75 -72 -37 -29
-78 -61 -92 -72 -26 -22 -305 -238 -353 -275 -15 -11 -40 -31 -55 -43 -14 -12
-28 -20 -30 -18 -7 7 -6 428 1 456 4 14 44 61 89 104 78 73 116 110 309 290
41 39 102 96 136 128 34 31 65 57 70 57 5 0 8 -120 8 -267z m-2940 103 c32 -9
67 -16 76 -16 9 0 20 -7 23 -16 7 -19 8 -311 0 -339 -3 -11 -43 -47 -90 -80
-47 -33 -104 -74 -127 -91 -23 -17 -186 -131 -361 -255 l-320 -223 -299 -1
c-164 0 -303 3 -309 6 -9 6 43 51 187 164 21 17 84 66 139 110 516 411 925
734 945 747 25 18 47 17 136 -6z m657 -52 c40 -32 78 -62 83 -66 9 -7 40 -32
131 -105 64 -52 258 -206 295 -235 67 -53 548 -435 586 -465 21 -17 55 -45 76
-61 22 -18 32 -32 25 -34 -7 -2 -148 -4 -313 -3 l-300 1 -50 35 c-27 20 -117
83 -200 141 -457 319 -627 443 -638 462 -14 26 -20 323 -6 348 5 10 20 18 32
19 12 0 42 7 67 14 25 7 66 12 92 11 41 -3 57 -11 120 -62z m-59 -782 c136
-96 247 -176 247 -178 0 -2 -114 -4 -252 -4 l-253 0 0 180 c0 99 2 179 5 178
3 -2 117 -81 253 -176z m-498 -7 l0 -175 -254 0 c-140 0 -252 3 -248 6 17 17
484 342 492 343 7 1 10 -62 10 -174z m-2361 -19 c109 -86 192 -157 185 -157
-84 -7 -394 -2 -406 6 -12 9 -15 38 -15 146 1 194 -1 181 20 170 9 -5 106 -80
216 -165z m5201 18 c0 -131 -3 -157 -16 -167 -16 -12 -393 -16 -405 -4 -3 3
20 25 53 49 32 24 67 51 78 60 73 61 277 217 285 218 3 0 6 -70 5 -156z"/>
<path d="M11100 6125 c-120 -24 -197 -88 -229 -187 -35 -108 2 -258 80 -318
18 -14 39 -30 48 -37 14 -11 14 -12 -5 -13 -25 0 -107 -42 -133 -67 -125 -123
-149 -365 -51 -508 48 -69 112 -124 190 -163 73 -36 76 -37 190 -37 104 0 120
3 172 27 32 15 74 39 95 55 83 63 150 182 156 276 2 23 7 42 13 42 5 0 47 -8
93 -19 136 -30 225 -11 298 64 74 74 117 185 73 185 -8 0 -26 -24 -41 -54 -50
-105 -128 -161 -226 -161 -22 0 -125 24 -229 54 -195 55 -243 61 -308 35 -42
-17 -76 -48 -69 -65 7 -19 26 -18 67 7 47 28 114 28 209 -1 l78 -23 -5 -46
c-15 -134 -92 -236 -226 -300 -47 -22 -68 -26 -150 -26 -86 0 -101 3 -163 32
-80 38 -161 115 -197 188 -22 44 -25 63 -24 150 0 88 3 107 27 155 36 73 66
105 129 138 48 24 64 27 158 27 90 0 105 2 108 17 3 17 -9 23 -63 32 -129 23
-219 89 -244 179 -58 204 112 362 334 312 121 -28 195 -107 212 -228 9 -68 43
-74 43 -8 0 86 -55 192 -125 239 -71 48 -189 68 -285 47z"/>
<path d="M5482 6113 c-6 -10 -53 -124 -106 -253 -53 -129 -106 -254 -116 -277
-11 -24 -20 -47 -20 -52 0 -5 -7 -22 -15 -38 -8 -15 -26 -57 -41 -93 -14 -36
-30 -74 -35 -85 -46 -107 -183 -446 -189 -467 -6 -18 -4 -30 4 -37 17 -15 34
0 50 44 7 22 25 66 40 97 14 31 26 62 26 67 0 6 4 19 10 29 5 9 21 43 34 75
l25 57 354 0 355 0 72 -177 c40 -98 77 -183 82 -190 12 -16 38 -5 38 15 0 9
-86 226 -192 482 -105 256 -224 544 -264 640 -71 173 -91 203 -112 163z m77
-208 c5 -11 13 -31 19 -45 6 -14 48 -115 92 -225 45 -110 87 -213 95 -230 35
-77 65 -157 61 -164 -8 -13 -658 -10 -653 3 10 24 217 527 264 641 28 66 53
129 57 140 8 20 8 20 65 -120z"/>
<path d="M7267 6123 c-9 -9 -9 -1295 1 -1309 5 -7 115 -10 342 -9 l335 1 68
34 c193 95 253 328 133 514 -41 63 -78 97 -135 127 l-44 23 24 15 c66 43 132
133 146 200 11 50 4 144 -13 190 -35 95 -112 169 -207 203 -45 15 -90 17 -348
18 -163 0 -299 -3 -302 -7z m616 -56 c126 -31 210 -143 210 -277 -1 -135 -96
-244 -234 -268 -24 -4 -156 -7 -294 -7 l-250 0 -3 281 -2 281 266 0 c151 0
284 -4 307 -10z m87 -629 c69 -32 124 -87 158 -158 38 -79 37 -182 -2 -262
-15 -31 -45 -72 -66 -91 -72 -68 -81 -69 -420 -71 -168 -1 -311 0 -317 2 -16
5 -19 598 -3 604 5 2 142 3 302 3 l293 -1 55 -26z"/>
<path d="M9413 6118 c-14 -19 -10 -1295 3 -1308 8 -8 15 -7 25 3 12 12 14 116
13 658 -1 354 -2 647 -3 652 -2 12 -28 8 -38 -5z"/>
<path d="M13685 6122 c-6 -4 -71 -153 -144 -332 -304 -739 -382 -926 -391
-942 -7 -12 -5 -22 7 -33 23 -24 32 -10 91 135 92 227 93 229 116 232 11 2
171 1 355 -2 l334 -5 29 -70 c16 -38 43 -104 60 -145 17 -41 38 -92 46 -112
17 -42 35 -53 52 -34 11 14 9 20 -26 101 -7 17 -33 80 -57 140 -58 145 -134
329 -158 382 -10 24 -19 46 -19 49 0 3 -7 20 -15 37 -8 18 -37 88 -65 157 -29
69 -74 179 -102 245 -27 66 -54 134 -60 150 -18 50 -32 62 -53 47z m101 -294
c41 -101 93 -228 115 -283 23 -55 47 -113 54 -130 50 -115 73 -175 67 -178
-13 -8 -652 -4 -652 4 0 4 44 115 99 246 54 131 127 308 162 394 40 99 67 152
72 143 4 -7 41 -95 83 -196z"/>
</g>
</svg>
